<?xml version="1.0" encoding="UTF-8"?>
<svg id="Layer_1" data-name="Layer 1" xmlns="http://www.w3.org/2000/svg" viewBox="0 0 300 300">
  <defs>
    <style>
      .cls-1 {
        fill: #74535e;
      }
    </style>
  </defs>
  <path class="cls-1" d="m197.83,93.85c-4.59,0-8.33,3.73-8.33,8.33s3.74,8.33,8.33,8.33,8.33-3.74,8.33-8.33-3.73-8.33-8.33-8.33Z"/>
  <path class="cls-1" d="m150,122.56c-15.13,0-27.44,12.31-27.44,27.44s12.31,27.44,27.44,27.44,27.44-12.31,27.44-27.44-12.31-27.44-27.44-27.44Z"/>
  <path class="cls-1" d="m150,117.71c-17.8,0-32.28,14.49-32.28,32.29s14.48,32.28,32.28,32.28,32.28-14.48,32.28-32.28-14.48-32.29-32.28-32.29Zm0,59.73c-15.13,0-27.44-12.31-27.44-27.44s12.31-27.44,27.44-27.44,27.44,12.31,27.44,27.44-12.31,27.44-27.44,27.44Z"/>
  <path class="cls-1" d="m212.52,89.78v-2.55h-2.57c.49.43.98.85,1.47,1.35.4.4.74.8,1.1,1.2Z"/>
  <path class="cls-1" d="m197.83,89c-7.27,0-13.18,5.91-13.18,13.17s5.91,13.18,13.18,13.18,13.17-5.91,13.17-13.18-5.91-13.17-13.17-13.17Zm0,21.51c-4.59,0-8.33-3.74-8.33-8.33s3.74-8.33,8.33-8.33,8.33,3.73,8.33,8.33-3.73,8.33-8.33,8.33Z"/>
  <path class="cls-1" d="m222.1,96.29c-1.75-4.52-3.85-7.74-7.24-11.14-3.4-3.39-6.62-5.49-11.14-7.24-3.32-1.29-8.3-2.83-17.41-3.25-9.43-.43-12.26-.52-36.31-.52s-26.89.09-36.31.52c-9.1.42-14.08,1.96-17.41,3.25-4.52,1.75-7.74,3.85-11.14,7.25-3.39,3.39-5.48,6.62-7.24,11.14-1.29,3.34-2.83,8.33-3.25,17.41-.43,9.44-.52,12.28-.52,36.31s.09,26.86.52,36.31c.42,9.06,1.96,14.06,3.25,17.41,1.76,4.52,3.85,7.74,7.25,11.14,3.39,3.39,6.62,5.48,11.14,7.24,3.34,1.29,8.35,2.83,17.41,3.25,9.56.43,12.42.52,36.31.52s26.75-.09,36.31-.52c9.07-.42,14.07-1.96,17.41-3.25,4.52-1.76,7.74-3.85,11.14-7.24,3.39-3.4,5.5-6.62,7.24-11.14,1.29-3.32,2.83-8.31,3.25-17.41.43-9.56.52-12.42.52-36.31s-.09-26.75-.52-36.31c-.42-9.11-1.96-14.09-3.25-17.41Zm-1.6,89.81c-.38,8.38-1.76,12.88-2.92,15.87-1.49,3.84-3.27,6.59-6.15,9.46-2.88,2.88-5.63,4.66-9.47,6.16-2.99,1.16-7.5,2.54-15.87,2.92-9.47.44-12.3.52-36.09.52s-26.62-.09-36.09-.52c-8.35-.38-12.87-1.76-15.87-2.92-3.84-1.5-6.59-3.28-9.46-6.15-2.88-2.88-4.66-5.63-6.16-9.47-1.16-3-2.54-7.51-2.92-15.87-.43-9.36-.52-12.18-.52-36.09s.09-26.74.52-36.09c.38-8.37,1.76-12.88,2.92-15.87,1.5-3.84,3.28-6.59,6.16-9.46,2.88-2.88,5.62-4.67,9.46-6.16,2.98-1.16,7.48-2.54,15.87-2.92,9.33-.44,12.14-.52,36.09-.52s26.76.09,36.09.52c8.4.38,12.89,1.76,15.87,2.92,3.19,1.23,5.62,2.71,7.99,4.81h2.57v2.55c2.23,2.47,3.78,4.96,5.06,8.26h0c1.16,2.98,2.54,7.47,2.92,15.87.44,9.47.52,12.3.52,36.09s-.09,26.62-.52,36.09Z"/>
</svg>